<!DOCTYPE svg PUBLIC "-//W3C//DTD SVG 1.1//EN" "http://www.w3.org/Graphics/SVG/1.1/DTD/svg11.dtd">
<!-- Uploaded to: SVG Repo, www.svgrepo.com, Transformed by: SVG Repo Mixer Tools -->
<svg fill="#000000" width="800px" height="800px" viewBox="0 0 24 24" id="window-5" data-name="Flat Line" xmlns="http://www.w3.org/2000/svg" class="icon flat-line">
<g id="SVGRepo_bgCarrier" stroke-width="0"/>
<g id="SVGRepo_tracerCarrier" stroke-linecap="round" stroke-linejoin="round"/>
<g id="SVGRepo_iconCarrier">
<path id="secondary" d="M19,4V20a1,1,0,0,1-1,1H12s0-5.23,2.76-7.79A14.07,14.07,0,0,1,10.57,3H18A1,1,0,0,1,19,4Z" style="fill: #2ca9bc; stroke-width: 2;"/>
<polyline id="primary" points="12 19 5 19 5 3 10.57 3" style="fill: none; stroke: #000000; stroke-linecap: round; stroke-linejoin: round; stroke-width: 2;"/>
<path id="primary-2" data-name="primary" d="M14.74,13.27C12,15.69,12,21,12,21h6a1,1,0,0,0,1-1V4a1,1,0,0,0-1-1H10.57A13.87,13.87,0,0,0,19,16" style="fill: none; stroke: #000000; stroke-linecap: round; stroke-linejoin: round; stroke-width: 2;"/>
</g>
</svg>